<svg width="648" height="38" viewBox="0 0 648 38" fill="none" xmlns="http://www.w3.org/2000/svg">
<path d="M41.0322 15.5588C45.0552 15.5588 48.3164 18.7827 48.3164 22.7595C48.3164 26.7363 45.0552 29.9602 41.0322 29.9602C37.0093 29.9602 33.748 26.7363 33.748 22.7595C33.748 18.7827 37.0093 15.5588 41.0322 15.5588Z" fill="#00B140"/>
<path d="M22.8624 37.1119L12.5801 3.93469L0.940247 25.6055L22.8624 37.1119Z" fill="#1F294A"/>
<path d="M88.8162 12.5845L59.599 31.8161L64.4803 7.75916L88.8162 12.5845Z" fill="#75787B"/>
<path d="M105.75 16.6768C109.773 16.6768 113.035 19.9006 113.035 23.8774C113.035 27.8542 109.773 31.0781 105.75 31.0781C101.727 31.0781 98.4663 27.8542 98.4663 23.8774C98.4663 19.9006 101.727 16.6768 105.75 16.6768Z" fill="#1F294A"/>
<path d="M151.338 34.321L123.499 13.186L148.109 9.99353L151.338 34.321Z" fill="#019CA6"/>
<path d="M209.526 14.0354C213.549 14.0354 216.81 17.2593 216.81 21.2361C216.81 25.213 213.549 28.4368 209.526 28.4368C205.503 28.4368 202.242 25.213 202.242 21.2361C202.242 17.2593 205.503 14.0354 209.526 14.0354Z" fill="#00B140"/>
<path d="M191.356 35.5885L181.074 2.41125L169.434 24.0821L191.356 35.5885Z" fill="#1F294A"/>
<path d="M257.31 11.0611L228.093 30.2928L232.974 6.23584L257.31 11.0611Z" fill="#75787B"/>
<path d="M274.244 15.1534C278.267 15.1534 281.529 18.3773 281.529 22.3541C281.529 26.3309 278.267 29.5548 274.244 29.5548C270.221 29.5548 266.96 26.3309 266.96 22.3541C266.96 18.3773 270.221 15.1534 274.244 15.1534Z" fill="#1F294A"/>
<path d="M319.832 32.7977L291.993 11.6627L316.603 8.47009L319.832 32.7977Z" fill="#019CA6"/>
<path d="M368.26 14.0354C372.283 14.0354 375.544 17.2593 375.544 21.2361C375.544 25.213 372.283 28.4368 368.26 28.4368C364.237 28.4368 360.976 25.213 360.976 21.2361C360.976 17.2593 364.237 14.0354 368.26 14.0354Z" fill="#00B140"/>
<path d="M350.09 35.5885L339.808 2.41125L328.168 24.0821L350.09 35.5885Z" fill="#1F294A"/>
<path d="M416.044 11.0611L386.827 30.2928L391.708 6.23584L416.044 11.0611Z" fill="#75787B"/>
<path d="M432.978 15.1534C437.001 15.1534 440.262 18.3773 440.262 22.3541C440.262 26.3309 437.001 29.5548 432.978 29.5548C428.955 29.5548 425.694 26.3309 425.694 22.3541C425.694 18.3773 428.955 15.1534 432.978 15.1534Z" fill="#1F294A"/>
<path d="M478.566 32.7977L450.727 11.6627L475.336 8.47009L478.566 32.7977Z" fill="#019CA6"/>
<path d="M536.754 12.5119C540.777 12.5119 544.038 15.7358 544.038 19.7126C544.038 23.6894 540.777 26.9132 536.754 26.9132C532.731 26.9132 529.47 23.6894 529.47 19.7126C529.47 15.7358 532.731 12.5119 536.754 12.5119Z" fill="#00B140"/>
<path d="M518.584 34.0651L508.302 0.887817L496.662 22.5587L518.584 34.0651Z" fill="#1F294A"/>
<path d="M584.538 9.5377L555.321 28.7694L560.202 4.7124L584.538 9.5377Z" fill="#75787B"/>
<path d="M601.472 13.63C605.495 13.63 608.756 16.8538 608.756 20.8307C608.756 24.8075 605.495 28.0314 601.472 28.0314C597.449 28.0314 594.188 24.8075 594.188 20.8307C594.188 16.8538 597.449 13.63 601.472 13.63Z" fill="#1F294A"/>
<path d="M647.06 31.1636L619.221 10.0285L643.83 6.83606L647.06 31.1636Z" fill="#019CA6"/>
</svg>
