<svg width="128" height="123" viewBox="0 0 128 123" fill="none" xmlns="http://www.w3.org/2000/svg">
<g clip-path="url(#clip0)">
<path d="M125.227 2.77686H45.4536V61.8269H125.227V2.77686Z" fill="white" stroke="#00B140" stroke-width="6.375" stroke-linecap="round" stroke-linejoin="round"/>
<path d="M69.9964 35.572H66.7725V27.4592H69.9964V35.572Z" fill="#00B140"/>
<path d="M76.4437 35.572H73.2197V19.3469H76.4437V35.572Z" fill="#00B140"/>
<path d="M73.2196 43.0725H69.9956V35.572H73.2196V43.0725Z" fill="#00B140"/>
<path d="M79.6678 45.351H76.4438V35.572H79.6678V45.351Z" fill="#00B140"/>
<path d="M82.891 35.572H79.667V14.9006H82.891V35.572Z" fill="#00B140"/>
<path d="M89.3392 35.572H86.1152V19.3469H89.3392V35.572Z" fill="#00B140"/>
<path d="M86.1151 51.7971H82.8911V35.572H86.1151V51.7971Z" fill="#00B140"/>
<path d="M92.5624 49.0533H89.3384V35.572H92.5624V49.0533Z" fill="#00B140"/>
<path d="M95.7865 35.572H92.5625V8.32683H95.7865V35.572Z" fill="#00B140"/>
<path d="M102.234 35.572H99.0098V12.8836H102.234V35.572Z" fill="#00B140"/>
<path d="M99.0106 45.351H95.7866V35.572H99.0106V45.351Z" fill="#00B140"/>
<path d="M105.458 41.5984H102.234V35.5714H105.458V41.5984Z" fill="#00B140"/>
<path d="M108.682 35.572H105.458V16.8709H108.682V35.572Z" fill="#00B140"/>
<path d="M115.129 35.572H111.905V26.2607H115.129V35.572Z" fill="#00B140"/>
<path d="M111.905 43.9657H108.681V35.5721H111.905V43.9657Z" fill="#00B140"/>
<path d="M118.353 38.5852H115.129V35.572H118.353V38.5852Z" fill="#00B140"/>
<path d="M15.9626 24.3176C15.9626 29.1496 19.8755 33.0667 24.7021 33.0667C29.5269 33.0667 33.4398 29.1496 33.4398 24.3176C33.4398 19.4868 29.5269 15.5691 24.7021 15.5691C19.8755 15.5691 15.9626 19.4868 15.9626 24.3176ZM18.5972 35.2887C12.3182 35.2887 8.69147 40.3798 7.87396 43.2518L0.234173 68.4344C-1.35193 73.8474 5.57901 75.9247 7.21801 70.8695L14.0989 47.689H15.9347L4.10669 88.7778H15.1713L15.1724 118.87C15.1724 124.377 23.4118 124.377 23.4118 118.87L23.4101 88.5693H25.8524V118.91C25.8524 124.349 34.0577 124.377 34.0577 118.91V88.7778H45.1399L33.2157 47.689H35.204L36.5365 46.5311C37.3557 49.1678 36.9798 45.1434 38.0804 44.9885C38.6306 44.9111 39.4434 45.5557 40.0231 45.8816C40.6027 46.2074 40.9491 46.2144 40.5665 44.8617L41.4272 43.2518C40.4851 40.4231 36.8419 35.2887 30.6175 35.2887H18.5972Z" fill="#00B140"/>
<path d="M63.7278 35.8545C63.4475 34.9086 62.7943 34.115 61.91 33.6461C61.0257 33.1772 59.9817 33.0709 59.0048 33.3502L59.0044 33.3485L58.9677 33.3594L35.3915 40.3492L35.3881 40.3504C34.4082 40.6418 33.5805 41.2992 33.0868 42.178C32.5932 43.0568 32.474 44.0852 32.7554 45.0372C33.0369 45.9893 33.696 46.7871 34.5881 47.2553C35.4801 47.7235 36.532 47.8237 37.5126 47.5339C37.5139 47.5335 37.5153 47.5332 37.5166 47.5328L61.0928 40.543L61.1295 40.5321L61.1291 40.5304C62.1005 40.2321 62.9184 39.5736 63.4051 38.6981C63.8919 37.8225 64.008 36.8006 63.7285 35.8543L63.7278 35.8545Z" fill="#00B140"/>
</g>
<defs>
<clipPath id="clip0">
<rect width="128" height="123" fill="white"/>
</clipPath>
</defs>
</svg>
