<svg width="353" height="62" viewBox="0 0 353 62" fill="none" xmlns="http://www.w3.org/2000/svg">
<path d="M7.27876 46.3834C7.39535 45.9385 7.96215 44.6782 8.00453 44.4664C8.07856 44.0692 7.76084 42.9306 7.47477 42.7347C6.67483 42.2051 6.82845 41.5432 7.31059 41.0295C7.42237 40.9115 7.54088 40.8001 7.66556 40.6959C7.78215 40.5952 7.79795 40.5264 7.66556 40.4258C7.27109 40.168 6.96149 39.7996 6.77556 39.3667C6.72167 39.2634 6.69622 39.1477 6.70182 39.0314C6.70742 38.9151 6.74387 38.8023 6.80742 38.7047C7.0776 38.3446 7.33718 37.9951 7.63385 37.6456C7.72536 37.5561 7.79907 37.4501 7.85104 37.3332C7.8984 37.2105 7.8984 37.0746 7.85104 36.9519C7.65625 36.6092 7.39936 36.3057 7.0935 36.0569C6.73855 35.6915 5.83267 35.1302 5.83267 34.2194C5.83267 32.7578 11.8825 29.4109 12.0203 28.3147C12.4547 24.8832 10.2297 26.6943 13.44 19.5081C15.2624 15.4146 12.7089 15.3405 15.4425 11.8825C17.7152 9.00165 30.8056 2.23916 46.2851 3.40949L46.7036 3.4413C44.6431 2.99691 42.5544 2.69435 40.4525 2.53575C24.957 1.37072 11.8825 8.13321 9.60986 11.0087C6.87629 14.4668 9.42965 14.5409 7.60735 18.6344C4.39702 25.8206 6.6008 24.0095 6.1876 27.441C6.04465 28.5319 0 31.884 0 33.3456C0 34.2512 0.905887 34.8178 1.26083 35.1779C1.55075 35.4264 1.79464 35.7239 1.98131 36.057C2.02369 36.1805 2.02369 36.3147 1.98131 36.4382C1.92823 36.5561 1.8547 36.6637 1.76412 36.756C1.48863 37.1108 1.23434 37.4656 0.937693 37.8151C0.872997 37.9113 0.83583 38.0233 0.830214 38.139C0.824598 38.2547 0.850747 38.3698 0.90583 38.4718C1.09039 38.9055 1.40029 39.2743 1.79583 39.5309C1.93359 39.6315 1.91242 39.7004 1.79583 39.7957C1.67923 39.8909 1.55214 40.0128 1.4409 40.1293C0.958814 40.6588 0.805178 41.3102 1.60508 41.8345C1.90704 42.0304 2.2196 43.169 2.13485 43.5661C2.09777 43.778 1.53091 45.0383 1.40908 45.4832C1.34157 45.8493 1.36895 46.2267 1.4886 46.5794C1.53369 46.7532 1.62104 46.9133 1.74289 47.0454C2.42098 47.8291 4.1798 48.3534 7.36894 47.8767L7.52252 47.8503C7.42802 47.7337 7.35941 47.5983 7.32121 47.4532C7.21567 47.1061 7.20106 46.7377 7.27877 46.3834L7.27876 46.3834Z" fill="#231F20"/>
<path d="M18.8594 49.3966C17.8316 48.4222 15.0769 48.507 13.281 48.7664C17.3801 52.6511 21.242 56.7785 24.8457 61.1264H29.9578C26.5068 56.9888 22.8001 53.0712 18.8594 49.3966Z" fill="#231F20"/>
<path d="M80.6292 27.764C81.8318 26.5884 83.0396 25.4181 84.2369 24.2371C84.4112 24.0598 84.6302 23.9327 84.8708 23.8693C85.1113 23.8059 85.3645 23.8086 85.6037 23.877C86.9137 24.1216 88.2442 24.2404 89.5769 24.2318C91.4098 24.1842 92.9249 23.2627 94.2546 22.0077C95.738 23.1621 95.881 24.5973 95.9764 26.5831C96.6703 25.2751 96.0822 22.2036 95.5472 21.3351C95.4259 21.1497 95.3557 20.9355 95.3436 20.7142C95.3316 20.4929 95.3781 20.2724 95.4785 20.0748C95.7543 19.421 95.8554 18.7067 95.7718 18.0021C95.6882 17.2974 95.4228 16.6266 95.0017 16.0554C95.1394 17.2787 95.1977 18.4861 94.5514 19.6141C93.8715 19.0016 93.1511 18.4354 92.3952 17.9195C91.5962 17.4319 90.7333 17.0577 89.8312 16.8074C88.9516 16.58 88.0414 16.4942 87.1347 16.5532C86.3316 16.661 85.5393 16.8382 84.7667 17.0828C85.9023 16.4171 87.0022 15.6924 88.0618 14.9116C91.3675 12.2638 92.8296 8.82162 92.0562 4.58513C91.9326 3.83165 91.6376 3.11658 91.194 2.49502C90.7504 1.87345 90.17 1.36198 89.4975 1C90.8378 2.40334 90.8483 3.97084 90.0272 5.586C88.8068 8.03039 86.7805 9.97929 84.2899 11.104C80.4069 12.8687 76.1071 13.5108 71.8777 12.9575C70.9609 12.8414 70.0939 12.4749 69.3719 11.8984C62.7439 7.03489 54.8976 4.10209 46.7035 3.42538L46.285 3.39358C30.7895 2.23385 17.7256 8.99635 15.4424 11.8772C12.7088 15.3352 15.2622 15.4093 13.4399 19.5028C10.2295 26.689 12.4545 24.8779 12.0201 28.3094C11.8824 29.4056 5.83252 32.7524 5.83252 34.214C5.83252 35.1249 6.7384 35.6862 7.09335 36.0516C7.38591 36.3037 7.63006 36.607 7.81382 36.9466C7.86118 37.0693 7.86118 37.2052 7.81382 37.3279C7.76184 37.4448 7.68814 37.5508 7.59661 37.6403C7.32115 38.0004 7.06686 38.3499 6.77019 38.6994C6.70663 38.797 6.67019 38.9098 6.66459 39.0261C6.65899 39.1424 6.68444 39.2581 6.73833 39.3614C6.92426 39.7943 7.23385 40.1627 7.62832 40.4205C7.76608 40.5212 7.75027 40.59 7.62832 40.6906C7.50366 40.7948 7.38515 40.9062 7.27338 41.0242C6.79131 41.5537 6.63767 42.2051 7.43756 42.7294C7.73955 42.9253 8.0574 44.0639 7.96735 44.461C7.92491 44.6729 7.35812 45.9332 7.24158 46.378C7.16937 46.7436 7.1949 47.1217 7.3156 47.4742C7.35379 47.6194 7.42241 47.7548 7.51691 47.8714C7.53155 47.8965 7.54937 47.9197 7.56992 47.9403C8.24803 48.7187 10.0068 49.243 13.196 48.7664H13.2436C15.0131 48.5069 17.7943 48.4222 18.822 49.3966C22.7718 53.0704 26.4874 56.988 29.947 61.1264H53.0021L38.1688 46.9818L52.5359 58.1767C52.5359 58.1767 54.3424 59.6648 59.1314 58.8651C63.3695 58.1608 66.76 55.6877 69.8167 52.7593C70.0498 52.5369 70.3835 52.1874 70.6166 52.2297C71.5681 52.3577 72.5014 52.5959 73.3979 52.9393C74.4309 53.3842 74.5527 54.3374 74.1713 55.5024C75.8348 53.7231 75.4427 52.325 72.6827 49.7302C73.6468 49.0418 74.468 48.1415 75.5487 47.7337C76.0501 47.55 76.587 47.484 77.118 47.541C77.649 47.5979 78.1597 47.7762 78.6107 48.0621C78.5476 47.6043 78.3308 47.1815 77.9959 46.8631C77.6609 46.5446 77.2277 46.3493 76.7671 46.3092C75.7501 46.1093 74.6951 46.2823 73.7952 46.7964C72.8522 47.3789 71.9781 48.0674 71.0669 48.6976C70.8608 48.8802 70.6107 49.0061 70.3411 49.0629C69.1015 49.1212 67.8619 49.1263 66.3627 49.1583C67.8195 48.5387 69.0485 47.9615 70.32 47.4901C74.2137 46.0391 78.1975 44.9853 82.4038 45.4143C83.4683 45.5567 84.5025 45.8715 85.4658 46.3463C86.4988 46.8229 86.8114 47.8555 86.8008 48.9358C86.8008 49.8732 86.1651 50.371 85.2963 50.6304C85.7916 50.7254 86.3044 50.6575 86.7579 50.437C87.2115 50.2165 87.5815 49.8552 87.8126 49.4071C88.9463 47.4954 88.1093 45.9279 86.7213 44.4822C87.0974 44.3922 87.3729 44.3392 87.6378 44.2598C89.8045 43.6191 91.4785 42.3958 92.2838 40.2246C92.5804 39.5579 92.6582 38.8145 92.5059 38.101C92.3536 37.3874 91.9791 36.7405 91.4362 36.2529C92.0825 38.101 91.5102 39.5097 89.8469 40.3093C87.7278 41.3366 83.7176 40.6694 81.9694 38.9536C84.7665 37.2749 86.626 34.7542 88.3265 32.0693C88.813 31.3358 89.4161 30.6865 90.1118 30.147C91.1289 29.3156 92.3315 28.9185 93.6082 29.5169C94.8849 30.1153 94.9803 31.2114 94.8743 32.4612C95.134 32.1137 95.3158 31.7144 95.4072 31.2904C95.4986 30.8663 95.4976 30.4276 95.4041 30.004C95.2581 29.1747 94.9246 28.3896 94.4289 27.7087C93.9332 27.0278 93.2884 26.4692 92.5439 26.0753C91.7993 25.6814 90.9745 25.4628 90.1325 25.4361C89.2905 25.4094 88.4536 25.5753 87.6855 25.9211C86.3433 26.5405 85.0849 27.3269 83.9401 28.2618C81.363 30.2906 78.4466 31.8469 75.3262 32.8584C74.6772 33.0919 73.9884 33.1952 73.2994 33.1625C72.6104 33.1298 71.9346 32.9617 71.3106 32.6677C72.3835 32.4446 73.4444 32.1671 74.4892 31.8363C76.8068 30.9397 78.9018 29.5502 80.6291 27.764L80.6292 27.764ZM92.9514 21.3034C90.9278 22.5214 88.9305 22.7703 86.5943 22.4525C88.6604 21.2292 90.5887 20.6255 92.9514 21.3034V21.3034ZM84.1786 17.3634L80.3379 20.133L78.6479 19.0739L84.1786 17.3634ZM79.3737 21.0704C78.987 21.3457 78.6002 20.8956 78.2082 20.2548C78.5791 20.5196 78.9605 20.7897 79.3737 21.081V21.0704ZM67.0939 52.2192C66.9349 53.167 58.4429 58.002 56.1172 57.1017C59.6349 55.5183 67.0992 52.1927 67.0939 52.2297V52.2192Z" stroke="#231F20" stroke-width="0.314581"/>
<path d="M121.935 16.5161L123.524 24.02H123.625C123.693 23.2384 123.821 22.463 124.006 21.7005L125.341 16.5161H128.843L130.564 24.02H130.665C130.719 23.2741 130.823 22.5328 130.978 21.8011L132.249 16.5055H137.017L132.577 29.0773H128.594L127.158 22.2406H127.01C126.981 22.8794 126.903 23.515 126.777 24.1418L125.505 29.0773H121.622L117.198 16.5161H121.935Z" fill="#231F20"/>
<path d="M151.458 22.8179C151.458 26.8531 148.338 29.2732 144.502 29.2732C140.667 29.2732 137.547 26.869 137.547 22.8179C137.547 18.8673 140.683 16.299 144.502 16.299C148.322 16.299 151.458 18.8832 151.458 22.8179ZM142.15 22.8867C142.15 23.1957 142.211 23.5017 142.329 23.7873C142.447 24.0728 142.62 24.3323 142.838 24.5509C143.057 24.7695 143.316 24.9429 143.602 25.0612C143.887 25.1795 144.193 25.2404 144.502 25.2404C144.811 25.2404 145.118 25.1795 145.403 25.0612C145.689 24.9429 145.948 24.7695 146.166 24.5509C146.385 24.3323 146.558 24.0728 146.676 23.7873C146.794 23.5017 146.855 23.1957 146.855 22.8867C146.855 22.5777 146.794 22.2717 146.676 21.9862C146.558 21.7006 146.385 21.4412 146.166 21.2226C145.948 21.004 145.689 20.8306 145.403 20.7122C145.118 20.5939 144.811 20.533 144.502 20.533C144.193 20.533 143.887 20.5939 143.602 20.7122C143.316 20.8306 143.057 21.004 142.838 21.2226C142.62 21.4412 142.447 21.7006 142.329 21.9862C142.211 22.2717 142.15 22.5777 142.15 22.8867Z" fill="#231F20"/>
<path d="M154.589 16.5162H159.293L161.031 23.1199H161.147C161.219 22.5578 161.325 22.0006 161.465 21.4517L162.88 16.5162H167.536L169.602 29.088H165.184L164.564 22.2037H164.469C164.397 22.6261 164.297 23.0436 164.172 23.4535L162.35 29.088H159.701L158.064 23.7924C157.921 23.2729 157.827 22.7409 157.783 22.2037H157.63C157.598 22.7015 157.566 23.2205 157.513 23.7183L156.984 29.088H152.56L154.589 16.5162Z" fill="#231F20"/>
<path d="M171.07 16.5162H179.546V19.9531H175.695V21.1499H179.212V24.4067H175.695V25.6406H179.678V29.0721H171.07V16.5162Z" fill="#231F20"/>
<path d="M181.48 16.5162H185.866L189.966 23.4853H190.099C189.883 22.4386 189.756 21.3758 189.718 20.3079V16.5162H194.088V29.088H189.718L185.697 22.4844H185.564C185.729 23.3151 185.823 24.1584 185.845 25.0051V29.088H181.48V16.5162Z" fill="#231F20"/>
<path d="M203.878 29.088H202.289V16.5162H203.878V29.088Z" fill="#231F20"/>
<path d="M206.076 15.9336L215.517 25.8205V16.5161H217.106V29.6068L207.644 19.7199V29.0879H206.055L206.076 15.9336Z" fill="#231F20"/>
<path d="M225.291 16.5162H229.947C234.185 16.5162 237.401 18.3697 237.401 22.9875C237.401 26.7209 234.752 29.088 231.081 29.088H225.291V16.5162ZM229.863 25.3228H230.159C231.674 25.3228 232.84 24.6185 232.84 22.9716C232.84 21.2029 231.823 20.4509 230.159 20.4509H229.873L229.863 25.3228Z" fill="#231F20"/>
<path d="M242.757 29.088H237.92L242.291 16.5162H247.345L251.826 29.088H246.99L246.576 27.4993H243.122L242.757 29.088ZM245.777 24.5391L245.247 22.3202C245.114 21.7907 245.03 21.2611 244.945 20.6998H244.781L243.933 24.5391H245.777Z" fill="#231F20"/>
<path d="M250.576 16.5162H260.186V20.6044L257.664 20.4827V29.088H253.098V20.4827L250.576 20.6044V16.5162Z" fill="#231F20"/>
<path d="M263.757 29.088H258.915L263.285 16.5162H268.339L272.826 29.088H267.989L267.576 27.4993H264.122L263.757 29.088ZM266.771 24.5391L266.241 22.3202C266.109 21.7907 266.024 21.2611 265.939 20.6998H265.775L264.938 24.5391H266.771Z" fill="#231F20"/>
<path d="M280.635 24.5867L280.868 24.7721C281.667 25.4563 282.668 25.86 283.718 25.9212C284.168 25.9212 284.889 25.7359 284.889 25.1692C284.889 24.6026 284.285 24.5549 283.866 24.4702L282.95 24.3061C281.164 23.9883 279.665 22.9345 279.665 20.9698C279.665 17.9831 282.383 16.315 285.122 16.315C286.527 16.3005 287.908 16.6823 289.106 17.4165L287.871 20.6362C287.104 20.0592 286.181 19.727 285.222 19.683C284.82 19.683 284.237 19.8365 284.237 20.3502C284.237 20.8639 284.804 20.8798 285.154 20.9698L286.213 21.2028C288.147 21.6371 289.551 22.6697 289.551 24.8038C289.551 27.8064 286.812 29.2892 284.094 29.2892C282.417 29.2677 280.765 28.8753 279.257 28.1401L280.635 24.5867Z" fill="#231F20"/>
<path d="M300.262 21.6211C299.561 20.8723 298.601 20.418 297.577 20.3501C297.251 20.3473 296.928 20.4091 296.626 20.532C296.324 20.6548 296.05 20.8362 295.819 21.0657C295.588 21.2952 295.405 21.5682 295.28 21.869C295.155 22.1698 295.091 22.4923 295.092 22.8179C295.109 23.4804 295.386 24.1096 295.864 24.5687C296.342 25.0278 296.983 25.2797 297.645 25.2698C298.138 25.2623 298.623 25.1553 299.073 24.955C299.523 24.7548 299.928 24.4655 300.262 24.1047L300.13 28.8019C299.083 29.1575 297.983 29.3365 296.877 29.3315C296.038 29.3428 295.205 29.1864 294.426 28.8714C293.648 28.5565 292.941 28.0894 292.346 27.4974C291.751 26.9055 291.28 26.2007 290.961 25.4244C290.642 24.6481 290.481 23.8159 290.488 22.9768C290.48 22.1099 290.644 21.25 290.971 20.4471C291.298 19.6442 291.781 18.9142 292.393 18.2998C293.005 17.6853 293.733 17.1985 294.534 16.8678C295.336 16.537 296.195 16.3689 297.063 16.3731C298.107 16.3805 299.143 16.5594 300.13 16.9027L300.262 21.6211Z" fill="#231F20"/>
<path d="M301.915 16.5162H306.487V29.088H301.915V16.5162Z" fill="#231F20"/>
<path d="M308.564 16.5162H317.04V19.9531H313.189V21.1499H316.706V24.4067H313.189V25.6406H317.172V29.0721H308.564V16.5162Z" fill="#231F20"/>
<path d="M318.942 16.5162H323.333L327.434 23.4853H327.566C327.351 22.4386 327.223 21.3758 327.185 20.3079V16.5162H331.555V29.088H327.185L323.164 22.4844H323.031C323.196 23.3151 323.29 24.1584 323.312 25.0051V29.088H318.942V16.5162Z" fill="#231F20"/>
<path d="M342.882 21.6211C342.179 20.8741 341.219 20.4201 340.196 20.3501C339.869 20.3459 339.545 20.4067 339.242 20.5289C338.939 20.6511 338.664 20.8323 338.431 21.0619C338.199 21.2915 338.015 21.5651 337.89 21.8665C337.764 22.168 337.7 22.4914 337.701 22.8179C337.717 23.4804 337.995 24.1096 338.473 24.5687C338.951 25.0278 339.591 25.2797 340.254 25.2698C340.747 25.2624 341.234 25.1554 341.684 24.9552C342.135 24.755 342.54 24.4657 342.876 24.1047L342.739 28.8019C341.691 29.1575 340.592 29.3365 339.486 29.3315C338.646 29.3428 337.813 29.1864 337.035 28.8714C336.257 28.5565 335.549 28.0894 334.954 27.4974C334.359 26.9055 333.888 26.2007 333.569 25.4244C333.25 24.6481 333.09 23.8159 333.097 22.9768C333.089 22.1099 333.253 21.25 333.58 20.4471C333.907 19.6442 334.39 18.9142 335.002 18.2998C335.614 17.6853 336.341 17.1985 337.143 16.8678C337.945 16.537 338.804 16.3689 339.671 16.3731C340.716 16.3805 341.752 16.5594 342.739 16.9027L342.882 21.6211Z" fill="#231F20"/>
<path d="M344.428 16.5162H352.905V19.9531H349.048V21.1499H352.534V24.4067H349.011V25.6406H353V29.0721H344.428V16.5162Z" fill="#231F20"/>
<path d="M120.674 38.7598H121.084C122.743 38.7598 124.238 38.9568 124.238 40.9925C124.238 42.9132 122.661 43.2087 121.101 43.2087H120.674V38.7598ZM120.674 44.4235H121.019L124.763 49.8573H126.455L122.513 44.3086C124.418 44.1444 125.617 42.7983 125.617 40.894C125.617 38.1032 123.433 37.4794 121.084 37.4794H119.294V49.8573H120.674V44.4235Z" fill="#231F20"/>
<path d="M128.047 49.8573H134.468V48.5769H129.427V43.7176H134.321V42.4371H129.427V38.7598H134.468V37.4794H128.047V49.8573Z" fill="#231F20"/>
<path d="M146.082 38.4808C144.982 37.66 143.767 37.266 142.387 37.266C138.84 37.266 135.933 40.1717 135.933 43.7176C135.933 47.2307 138.889 50.0708 142.387 50.0708C143.701 50.0708 145.015 49.6275 146.082 48.856V47.1487C145.097 48.1336 143.734 48.7903 142.338 48.7903C139.563 48.7903 137.313 46.3935 137.313 43.6684C137.313 40.9433 139.546 38.5465 142.305 38.5465C143.734 38.5465 145.097 39.1703 146.082 40.1881V38.4808Z" fill="#231F20"/>
<path d="M149.659 37.4794H148.28V49.8573H149.659V37.4794Z" fill="#231F20"/>
<path d="M157.629 38.7598V37.4794H151.996V49.8573H153.375V43.7176H157.497V42.4371H153.375V38.7598H157.629Z" fill="#231F20"/>
<path d="M159.69 49.8573H166.111V48.5769H161.069V43.7176H165.963V42.4371H161.069V38.7598H166.111V37.4794H159.69V49.8573Z" fill="#231F20"/>
</svg>
