<svg width="97" height="110" viewBox="0 0 97 110" fill="none" xmlns="http://www.w3.org/2000/svg">
<path d="M17.1176 9.19961C17.1176 14.069 21.0748 18.0165 25.9559 18.0165C30.8353 18.0165 34.7924 14.069 34.7924 9.19961C34.7924 4.3314 30.8353 0.383332 25.9559 0.383332C21.0748 0.383332 17.1176 4.3314 17.1176 9.19961ZM19.782 20.2557C13.4321 20.2557 9.76432 25.3862 8.93757 28.2804L1.21143 53.6581C-0.392597 59.113 6.61668 61.2064 8.27421 56.112L15.2329 32.752H17.0894L5.12772 74.159H16.3174L16.3185 104.484C16.3185 110.034 24.651 110.034 24.651 104.484L24.6493 73.949H27.1192V104.525C27.1192 110.006 35.4172 110.034 35.4172 104.525V74.159H46.6247L34.5657 32.752H36.5765L43.5311 56.0294C45.1881 61.3436 52.145 59.086 50.5974 53.6335L42.8701 28.2804C41.9173 25.4299 38.2329 20.2557 31.9382 20.2557H19.782Z" fill="#00B140" stroke="white" stroke-width="1.29975"/>
<path d="M40.5048 9.61964C40.5048 14.489 44.462 18.4365 49.3431 18.4365C54.2225 18.4365 58.1796 14.489 58.1796 9.61964C58.1796 4.75143 54.2225 0.803365 49.3431 0.803365C44.462 0.803365 40.5048 4.75143 40.5048 9.61964ZM43.1692 20.6757C36.8193 20.6757 33.1515 25.8063 32.3248 28.7005L24.5986 54.0782C22.9946 59.533 30.0039 61.6264 31.6614 56.5321L38.6201 33.172H40.4767L28.5149 74.5791H39.7046L39.7057 104.904C39.7057 110.454 48.0382 110.454 48.0382 104.904L48.0365 74.369H50.5064V104.945C50.5064 110.426 58.8044 110.454 58.8044 104.945V74.5791H70.0119L57.953 33.172H59.9637L66.9184 56.4494C68.5753 61.7636 75.5322 59.506 73.9846 54.0535L66.2573 28.7005C65.3045 25.8499 61.6201 20.6757 55.3254 20.6757H43.1692Z" fill="#00B140" stroke="white" stroke-width="1.29975"/>
<path d="M62.4965 9.40968C62.4965 14.279 66.4537 18.2265 71.3348 18.2265C76.2142 18.2265 80.1713 14.279 80.1713 9.40968C80.1713 4.54147 76.2142 0.593404 71.3348 0.593404C66.4537 0.593404 62.4965 4.54147 62.4965 9.40968ZM65.1609 20.4658C58.811 20.4658 55.1432 25.5963 54.3165 28.4905L46.5903 53.8682C44.9863 59.3231 51.9956 61.4165 53.6531 56.3221L60.6118 32.9621H62.4684L50.5066 74.3691H61.6963L61.6974 104.694C61.6974 110.244 70.0299 110.244 70.0299 104.694L70.0282 74.159H72.4981V104.735C72.4981 110.216 80.7961 110.244 80.7961 104.735V74.3691H92.0036L79.9447 32.9621H81.9554L88.9101 56.2395C90.567 61.5537 97.5239 59.2961 95.9763 53.8435L88.249 28.4905C87.2962 25.6399 83.6118 20.4658 77.3171 20.4658H65.1609Z" fill="#00B140" stroke="white" stroke-width="1.29975"/>
</svg>
