<?xml version="1.0" encoding="UTF-8" standalone="no"?>
<!-- Created with Inkscape (http://www.inkscape.org/) -->

<svg
   xmlns:dc="http://purl.org/dc/elements/1.1/"
   xmlns:cc="http://creativecommons.org/ns#"
   xmlns:rdf="http://www.w3.org/1999/02/22-rdf-syntax-ns#"
   xmlns:svg="http://www.w3.org/2000/svg"
   xmlns="http://www.w3.org/2000/svg"
   xmlns:sodipodi="http://sodipodi.sourceforge.net/DTD/sodipodi-0.dtd"
   xmlns:inkscape="http://www.inkscape.org/namespaces/inkscape"
   width="58.840652mm"
   height="67.253113mm"
   viewBox="0 0 58.840652 67.253113"
   version="1.1"
   id="svg2543"
   inkscape:version="0.92.3 (2405546, 2018-03-11)"
   sodipodi:docname="audience.svg">
  <defs
     id="defs2537" />
  <sodipodi:namedview
     id="base"
     pagecolor="#ffffff"
     bordercolor="#666666"
     borderopacity="1.0"
     inkscape:pageopacity="0.0"
     inkscape:pageshadow="2"
     inkscape:zoom="0.98994949"
     inkscape:cx="224.01565"
     inkscape:cy="79.862559"
     inkscape:document-units="mm"
     inkscape:current-layer="layer1"
     showgrid="false"
     fit-margin-top="0"
     fit-margin-left="0"
     fit-margin-right="0"
     fit-margin-bottom="0"
     inkscape:window-width="1920"
     inkscape:window-height="986"
     inkscape:window-x="-11"
     inkscape:window-y="-11"
     inkscape:window-maximized="1" />
  <metadata
     id="metadata2540">
    <rdf:RDF>
      <cc:Work
         rdf:about="">
        <dc:format>image/svg+xml</dc:format>
        <dc:type
           rdf:resource="http://purl.org/dc/dcmitype/StillImage" />
        <dc:title></dc:title>
      </cc:Work>
    </rdf:RDF>
  </metadata>
  <g
     inkscape:label="Layer 1"
     inkscape:groupmode="layer"
     id="layer1"
     transform="translate(-53.734438,-80.432972)">
    <g
       style="fill:#00b140;fill-opacity:1;stroke:#ffffff;stroke-width:1.29974997;stroke-miterlimit:4;stroke-dasharray:none;stroke-opacity:1"
       id="g2321"
       transform="matrix(0.35277777,0,0,-0.35277777,35.873927,347.88575)">
      <g
         style="fill:#00b140;fill-opacity:1;stroke:#ffffff;stroke-width:1.29974997;stroke-miterlimit:4;stroke-dasharray:none;stroke-opacity:1"
         id="g2319">
        <g
           style="fill:#00b140;fill-opacity:1;stroke:#ffffff;stroke-width:1.29974997;stroke-miterlimit:4;stroke-dasharray:none;stroke-opacity:1"
           id="g2317">
          <g
             style="fill:#00b140;fill-opacity:1;stroke:#ffffff;stroke-width:1.29974997;stroke-miterlimit:4;stroke-dasharray:none;stroke-opacity:1"
             id="g2315">
            <path
               inkscape:connector-curvature="0"
               id="path2313"
               style="fill:#00b140;fill-opacity:1;stroke:#ffffff;stroke-width:1.29974997;stroke-miterlimit:4;stroke-dasharray:none;stroke-opacity:1"
               d="m 79.326,742.125 c 0,-8.483 6.878,-15.36 15.362,-15.36 v 0 c 8.481,0 15.359,6.877 15.359,15.36 v 0 c 0,8.481 -6.878,15.359 -15.359,15.359 v 0 c -8.484,0 -15.362,-6.878 -15.362,-15.359 m 4.631,-19.261 c -11.037,0 -17.412,-8.938 -18.849,-13.98 v 0 L 51.679,664.673 c -2.788,-9.503 9.395,-13.15 12.276,-4.275 v 0 l 12.095,40.696 h 3.227 L 58.486,628.958 h 19.449 l 0.002,-52.83 c 0,-9.668 14.483,-9.668 14.483,0 v 0 l -0.003,53.196 h 4.293 v -53.267 c 0,-9.548 14.423,-9.597 14.423,0 v 0 52.901 h 19.48 l -20.96,72.136 h 3.495 l 12.088,-40.552 c 2.88,-9.258 14.972,-5.325 12.282,4.174 v 0 l -13.431,44.168 c -1.656,4.966 -8.06,13.98 -19.001,13.98 v 0 z" />
          </g>
        </g>
      </g>
    </g>
    <g
       transform="matrix(0.35277777,0,0,-0.35277777,50.214343,348.14398)"
       id="g2525"
       style="fill:#00b140;fill-opacity:1;stroke:#ffffff;stroke-width:1.29974997;stroke-miterlimit:4;stroke-dasharray:none;stroke-opacity:1">
      <g
         id="g2523"
         style="fill:#00b140;fill-opacity:1;stroke:#ffffff;stroke-width:1.29974997;stroke-miterlimit:4;stroke-dasharray:none;stroke-opacity:1">
        <g
           id="g2521"
           style="fill:#00b140;fill-opacity:1;stroke:#ffffff;stroke-width:1.29974997;stroke-miterlimit:4;stroke-dasharray:none;stroke-opacity:1">
          <g
             id="g2519"
             style="fill:#00b140;fill-opacity:1;stroke:#ffffff;stroke-width:1.29974997;stroke-miterlimit:4;stroke-dasharray:none;stroke-opacity:1">
            <path
               d="m 79.326,742.125 c 0,-8.483 6.878,-15.36 15.362,-15.36 v 0 c 8.481,0 15.359,6.877 15.359,15.36 v 0 c 0,8.481 -6.878,15.359 -15.359,15.359 v 0 c -8.484,0 -15.362,-6.878 -15.362,-15.359 m 4.631,-19.261 c -11.037,0 -17.412,-8.938 -18.849,-13.98 v 0 L 51.679,664.673 c -2.788,-9.503 9.395,-13.15 12.276,-4.275 v 0 l 12.095,40.696 h 3.227 L 58.486,628.958 h 19.449 l 0.002,-52.83 c 0,-9.668 14.483,-9.668 14.483,0 v 0 l -0.003,53.196 h 4.293 v -53.267 c 0,-9.548 14.423,-9.597 14.423,0 v 0 52.901 h 19.48 l -20.96,72.136 h 3.495 l 12.088,-40.552 c 2.88,-9.258 14.972,-5.325 12.282,4.174 v 0 l -13.431,44.168 c -1.656,4.966 -8.06,13.98 -19.001,13.98 v 0 z"
               style="fill:#00b140;fill-opacity:1;stroke:#ffffff;stroke-width:1.29974997;stroke-miterlimit:4;stroke-dasharray:none;stroke-opacity:1"
               id="path2517"
               inkscape:connector-curvature="0" />
          </g>
        </g>
      </g>
    </g>
    <g
       style="fill:#00b140;fill-opacity:1;stroke:#ffffff;stroke-width:1.29974997;stroke-miterlimit:4;stroke-dasharray:none;stroke-opacity:1"
       id="g2535"
       transform="matrix(0.35277777,0,0,-0.35277777,63.698919,348.01486)">
      <g
         style="fill:#00b140;fill-opacity:1;stroke:#ffffff;stroke-width:1.29974997;stroke-miterlimit:4;stroke-dasharray:none;stroke-opacity:1"
         id="g2533">
        <g
           style="fill:#00b140;fill-opacity:1;stroke:#ffffff;stroke-width:1.29974997;stroke-miterlimit:4;stroke-dasharray:none;stroke-opacity:1"
           id="g2531">
          <g
             style="fill:#00b140;fill-opacity:1;stroke:#ffffff;stroke-width:1.29974997;stroke-miterlimit:4;stroke-dasharray:none;stroke-opacity:1"
             id="g2529">
            <path
               inkscape:connector-curvature="0"
               id="path2527"
               style="fill:#00b140;fill-opacity:1;stroke:#ffffff;stroke-width:1.29974997;stroke-miterlimit:4;stroke-dasharray:none;stroke-opacity:1"
               d="m 79.326,742.125 c 0,-8.483 6.878,-15.36 15.362,-15.36 v 0 c 8.481,0 15.359,6.877 15.359,15.36 v 0 c 0,8.481 -6.878,15.359 -15.359,15.359 v 0 c -8.484,0 -15.362,-6.878 -15.362,-15.359 m 4.631,-19.261 c -11.037,0 -17.412,-8.938 -18.849,-13.98 v 0 L 51.679,664.673 c -2.788,-9.503 9.395,-13.15 12.276,-4.275 v 0 l 12.095,40.696 h 3.227 L 58.486,628.958 h 19.449 l 0.002,-52.83 c 0,-9.668 14.483,-9.668 14.483,0 v 0 l -0.003,53.196 h 4.293 v -53.267 c 0,-9.548 14.423,-9.597 14.423,0 v 0 52.901 h 19.48 l -20.96,72.136 h 3.495 l 12.088,-40.552 c 2.88,-9.258 14.972,-5.325 12.282,4.174 v 0 l -13.431,44.168 c -1.656,4.966 -8.06,13.98 -19.001,13.98 v 0 z" />
          </g>
        </g>
      </g>
    </g>
  </g>
</svg>
