<svg width="42" height="32" viewBox="0 0 42 32" fill="none" xmlns="http://www.w3.org/2000/svg">
<path d="M5.24315 29.3781C4.97826 29.3781 4.73756 29.3017 4.49517 29.2274L15.8622 16.2374L20.12 19.8856C20.3647 20.0987 20.6695 20.2033 20.9726 20.2033C21.2757 20.2033 21.58 20.0987 21.8246 19.8856L26.0825 16.2374L37.4494 29.2274C37.2082 29.3017 36.9669 29.3781 36.702 29.3781H5.24315ZM2.72477 27.2692C2.68934 27.0977 2.62129 26.9391 2.62129 26.7574V5.78482C2.62129 5.51375 2.70003 5.26799 2.77651 5.02222L13.8708 14.5305L2.72477 27.2692ZM36.702 3.16353C36.8753 3.16353 37.0288 3.22989 37.193 3.26307L20.9726 17.167L4.75162 3.26307C4.91584 3.22989 5.06881 3.16353 5.24315 3.16353H36.702ZM28.0716 14.5328L39.1698 5.02222C39.2468 5.26799 39.3233 5.51375 39.3233 5.78482V26.7574C39.3233 26.9391 39.2542 27.1005 39.2176 27.272L28.0716 14.5328ZM36.702 0.542236H5.24315C2.34797 0.542236 0 2.88908 0 5.78482V26.7574C0 29.6532 2.34797 32 5.24315 32H36.702C39.5967 32 41.9446 29.6532 41.9446 26.7574V5.78482C41.9446 2.88908 39.5967 0.542236 36.702 0.542236Z" fill="#231F20"/>
</svg>
