<svg width="36" height="36" viewBox="0 0 36 36" fill="none" xmlns="http://www.w3.org/2000/svg">
<path d="M31.7436 24.4932C31.7436 28.4982 28.4975 31.7443 24.4923 31.7443H10.558C6.5528 31.7443 3.30673 28.4982 3.30673 24.4932V10.5579C3.30673 6.55262 6.5528 3.30639 10.558 3.30639H24.4923C28.4975 3.30639 31.7436 6.55258 31.7436 10.5579V24.4932ZM35.0503 10.5579C35.0503 4.72735 30.3241 0 24.4923 0H10.558C4.72627 0 0 4.72735 0 10.5579V24.4932C0 30.3238 4.72627 35.0511 10.558 35.0511H24.4923C30.3241 35.0511 35.0503 30.3238 35.0503 24.4932V10.5579ZM17.5853 23.2975C14.5281 23.2975 12.0402 20.8096 12.0402 17.7524C12.0402 14.6952 14.5281 12.2073 17.5853 12.2073C20.6426 12.2073 23.1295 14.6951 23.1295 17.7524C23.1295 20.8097 20.6426 23.2975 17.5853 23.2975ZM17.5853 9.09651C12.8121 9.09651 8.92914 12.9792 8.92914 17.7524C8.92914 22.5259 12.8121 26.4078 17.5853 26.4078C22.3586 26.4078 26.2405 22.5259 26.2405 17.7524C26.2405 12.9793 22.3586 9.09651 17.5853 9.09651ZM26.7463 6.45398C25.6086 6.45398 24.685 7.37527 24.685 8.51336C24.685 9.65214 25.6086 10.5747 26.7463 10.5747C27.8841 10.5747 28.8067 9.65214 28.8067 8.51336C28.8067 7.37527 27.8841 6.45398 26.7463 6.45398Z" fill="#231F20"/>
</svg>
