<svg width="38" height="31" viewBox="0 0 38 31" fill="none" xmlns="http://www.w3.org/2000/svg">
<path d="M36.8937 3.65584C35.7179 4.18902 34.4234 4.51151 33.1533 4.72456C33.7563 4.62325 34.6446 3.53248 34.9996 3.09127C35.541 2.41837 35.9927 1.65114 36.2465 0.823431C36.2778 0.758091 36.3023 0.676596 36.2382 0.627756C36.1556 0.594756 36.1032 0.611272 36.0392 0.644272C34.6224 1.40446 33.1555 1.95514 31.5955 2.34513C31.4663 2.37813 31.3708 2.34517 31.2894 2.26366C31.1601 2.11813 31.0391 1.98085 30.9017 1.86667C30.2451 1.30903 29.542 0.871223 28.748 0.547592C27.7072 0.122684 26.5687 -0.0566193 25.4464 0.0155517C24.3556 0.0865017 23.2846 0.395142 22.316 0.900372C21.3451 1.40798 20.4789 2.11348 19.7886 2.96448C19.0749 3.84459 18.5487 4.88417 18.2798 5.98663C18.019 7.05068 18.0411 8.10305 18.1995 9.17756C18.2229 9.35576 18.2077 9.38024 18.0458 9.35582C11.9434 8.44779 6.88389 6.26374 2.77787 1.58378C2.59858 1.38116 2.50196 1.38117 2.35528 1.60029C0.557806 4.29418 1.42976 8.62136 3.67544 10.7483C3.97462 11.0324 4.28197 11.3153 4.61492 11.5737C4.49269 11.6001 2.99906 11.4364 1.66726 10.7483C1.48912 10.6354 1.39949 10.7005 1.38435 10.9021C1.36818 11.1931 1.3926 11.4609 1.4321 11.7775C1.77669 14.5075 3.66846 17.0338 6.25873 18.0187C6.5649 18.1491 6.90484 18.2619 7.2378 18.319C6.64756 18.4471 6.0387 18.5401 4.34717 18.4074C4.13646 18.3679 4.05614 18.4727 4.13646 18.675C5.40774 22.1408 8.15284 23.1711 10.2076 23.759C10.4835 23.8068 10.7594 23.8069 11.0342 23.8719C11.019 23.8983 11.0015 23.8983 10.9852 23.9207C10.3042 24.9603 7.93979 25.7332 6.83965 26.1186C4.83728 26.8182 2.65796 27.1326 0.542671 26.9242C0.2039 26.8741 0.131723 26.8787 0.0409171 26.9242C-0.0522089 26.9813 0.0280462 27.0628 0.13754 27.1499C0.567118 27.434 1.00368 27.6854 1.44955 27.9276C2.793 28.6401 4.1935 29.207 5.65802 29.6121C13.2239 31.7006 21.7456 30.1663 27.4256 24.5224C31.8867 20.0904 33.4502 13.9786 33.4502 7.85859C33.4502 7.61868 33.7331 7.486 33.9019 7.35908C35.0625 6.48712 35.9846 5.44405 36.8507 4.27872C37.0451 4.0167 37.0323 3.78391 37.0323 3.68847C37.0323 3.67197 37.0323 3.65554 37.0323 3.65554C37.0323 3.55786 37.0452 3.58789 36.8938 3.65554" fill="#231F20"/>
</svg>
